<?xml version="1.0" standalone="no"?>
<!DOCTYPE svg PUBLIC "-//W3C//DTD SVG 20010904//EN"
 "http://www.w3.org/TR/2001/REC-SVG-20010904/DTD/svg10.dtd">
<svg version="1.0" xmlns="http://www.w3.org/2000/svg"
 width="1546.000000pt" height="154.000000pt" viewBox="0 0 1546.000000 154.000000"
 preserveAspectRatio="xMidYMid meet">
<metadata>
Created by potrace 1.15, written by Peter Selinger 2001-2017
</metadata>
<g transform="translate(0.000000,154.000000) scale(0.100000,-0.100000)"
fill="#000000" stroke="none">
<path d="M680 1219 c-164 -29 -276 -145 -296 -308 -4 -25 -17 -68 -30 -95 -18
-37 -24 -67 -24 -115 0 -192 161 -310 425 -313 175 -1 292 38 374 127 66 72
86 124 86 225 0 65 -4 92 -18 113 -9 14 -17 39 -17 55 0 78 -70 193 -147 243
-100 63 -234 89 -353 68z m255 -60 c116 -43 207 -163 208 -274 2 -99 -71 -208
-173 -258 -69 -34 -186 -31 -262 6 -75 37 -127 100 -153 185 l-6 22 37 -25
c62 -42 135 -58 238 -53 52 3 109 13 134 23 109 44 135 167 55 256 -47 52 -95
76 -180 90 -121 20 -243 -26 -300 -113 -24 -36 -28 -51 -27 -112 3 -120 53
-219 148 -288 39 -28 40 -29 11 -22 -118 28 -200 90 -230 173 -33 95 -8 233
57 307 41 46 110 86 178 101 72 16 196 8 265 -18z m-25 -90 c58 -25 102 -71
93 -97 -17 -49 -82 -81 -164 -82 -73 0 -113 15 -128 48 -11 23 -10 29 9 44 36
29 70 33 120 14 58 -22 72 -24 77 -9 6 17 -50 49 -97 57 -24 4 -55 1 -80 -8
-22 -8 -50 -12 -60 -9 -25 7 -38 -22 -22 -48 7 -10 12 -27 12 -38 0 -30 36
-67 78 -79 82 -25 200 -6 248 39 13 12 24 17 24 11 0 -28 -25 -61 -64 -83 -37
-21 -53 -24 -156 -24 -101 0 -121 3 -163 24 -29 14 -59 39 -74 62 -22 33 -24
42 -14 72 16 47 71 96 133 119 66 23 155 18 228 -13z m268 -342 c-11 -174
-133 -279 -349 -301 -121 -13 -285 21 -362 76 -75 54 -119 165 -98 246 l12 43
32 -63 c56 -111 153 -164 319 -175 196 -13 348 57 414 192 14 30 29 55 31 55
3 0 4 -33 1 -73z"/>
<path d="M1720 750 l0 -180 109 0 c134 0 151 10 158 87 5 45 2 55 -19 76 -23
23 -23 25 -7 35 38 24 31 130 -11 152 -10 6 -66 10 -124 10 l-106 0 0 -180z
m198 118 c7 -7 12 -24 12 -38 0 -40 -18 -50 -92 -50 l-68 0 0 50 0 50 68 0
c40 0 73 -5 80 -12z m3 -159 c15 -15 19 -28 14 -47 -9 -37 -20 -42 -97 -42
l-68 0 0 48 c0 27 3 52 7 55 3 4 33 7 65 7 45 0 62 -4 79 -21z"/>
<path d="M2190 786 c0 -80 4 -156 10 -170 14 -38 47 -50 133 -50 71 0 80 3
105 27 26 26 26 30 30 182 l4 155 -31 0 -31 0 0 -144 c0 -167 -1 -169 -87
-169 -80 0 -83 7 -83 175 l0 138 -25 0 -25 0 0 -144z"/>
<path d="M2680 750 l0 -180 25 0 24 0 3 128 3 127 88 -127 c72 -105 92 -128
112 -128 l25 0 0 180 0 180 -25 0 -25 0 0 -127 0 -126 -87 126 c-76 110 -92
126 -115 127 l-28 0 0 -180z"/>
<path d="M3180 750 l0 -180 109 0 c134 0 151 10 158 87 5 45 2 55 -19 76 -23
23 -23 25 -7 35 38 24 31 130 -11 152 -10 6 -66 10 -124 10 l-106 0 0 -180z
m198 118 c7 -7 12 -24 12 -38 0 -40 -18 -50 -92 -50 l-68 0 0 50 0 50 68 0
c40 0 73 -5 80 -12z m3 -159 c15 -15 19 -28 14 -47 -9 -37 -20 -42 -97 -42
l-68 0 0 48 c0 27 3 52 7 55 3 4 33 7 65 7 45 0 62 -4 79 -21z"/>
<path d="M3650 786 c0 -80 4 -156 10 -170 14 -38 47 -50 133 -50 71 0 80 3
105 27 26 26 26 30 30 182 l4 155 -31 0 -31 0 0 -144 c0 -167 -1 -169 -87
-169 -80 0 -83 7 -83 175 l0 138 -25 0 -25 0 0 -144z"/>
<path d="M4140 750 l0 -180 25 0 24 0 3 128 3 127 88 -127 c72 -105 92 -128
112 -128 l25 0 0 180 0 180 -25 0 -25 0 0 -127 0 -126 -87 126 c-76 110 -92
126 -115 127 l-28 0 0 -180z"/>
<path d="M4610 666 l0 -96 59 0 c35 0 63 5 69 13 12 14 13 139 2 158 -5 7 -35
15 -69 17 l-61 4 0 -96z"/>
<path d="M5602 701 c-19 -11 -27 -83 -13 -110 9 -16 21 -21 54 -21 53 0 67 13
67 63 0 58 -14 77 -58 77 -20 0 -43 -4 -50 -9z"/>
<path d="M5740 614 c0 -77 3 -94 15 -94 9 0 15 9 15 25 0 22 4 25 33 25 45 0
57 15 57 71 0 57 -13 69 -73 67 l-47 -1 0 -93z"/>
</g>
</svg>
